<svg xmlns="http://www.w3.org/2000/svg" width="390" height="844" viewBox="0 0 390 844">
<rect x="0" y="0" width="390" height="844" fill="#0b1020"/>
<rect x="0" y="0" width="390" height="64" fill="#0f1733"/>
<text x="20" y="40" font-family="Inter, Arial" font-size="18" fill="#eef2ff">My Reports</text>
<rect x="16" y="80" rx="12" ry="12" width="358" height="120" fill="#121a3a" stroke="#25316a"/>
<text x="28" y="106" font-family="Inter, Arial" font-size="14" fill="#eef2ff" opacity="0.9">Identify</text>
<rect x="28" y="124" width="334" height="40" rx="10" ry="10" fill="none" stroke="#25316a"/>
<text x="36" y="150" font-family="Inter, Arial" font-size="13" fill="#eef2ff" opacity="0.75">Email</text>
<rect x="28" y="172" width="334" height="40" rx="10" ry="10" fill="none" stroke="#25316a"/>
<text x="36" y="198" font-family="Inter, Arial" font-size="13" fill="#eef2ff" opacity="0.75">Company</text>
<rect x="16" y="212" rx="12" ry="12" width="358" height="220" fill="#121a3a" stroke="#25316a"/>
<text x="28" y="238" font-family="Inter, Arial" font-size="14" fill="#eef2ff" opacity="0.9">Reports</text>
<rect x="28" y="256" width="334" height="40" rx="10" ry="10" fill="none" stroke="#25316a"/>
<text x="36" y="282" font-family="Inter, Arial" font-size="13" fill="#eef2ff" opacity="0.75">Draft | Submitted | Approved | Rejected</text>
<rect x="250" y="304" width="112" height="40" rx="10" ry="10" fill="#335CFF"/>
<text x="306" y="330" text-anchor="middle" font-family="Inter, Arial" font-size="13" fill="#fff">Open</text>
</svg>