<svg xmlns="http://www.w3.org/2000/svg" width="390" height="844" viewBox="0 0 390 844">
<rect x="0" y="0" width="390" height="844" fill="#0b1020"/>
<rect x="0" y="0" width="390" height="64" fill="#0f1733"/>
<text x="20" y="40" font-family="Inter, Arial" font-size="18" fill="#eef2ff">Approver – Review & Approve</text>
<rect x="16" y="80" rx="12" ry="12" width="358" height="100" fill="#121a3a" stroke="#25316a"/>
<text x="28" y="106" font-family="Inter, Arial" font-size="14" fill="#eef2ff" opacity="0.9">Company</text>
<rect x="28" y="124" width="334" height="40" rx="10" ry="10" fill="none" stroke="#25316a"/>
<text x="36" y="150" font-family="Inter, Arial" font-size="13" fill="#eef2ff" opacity="0.75">Approver Email</text>
<rect x="28" y="172" width="334" height="40" rx="10" ry="10" fill="none" stroke="#25316a"/>
<text x="36" y="198" font-family="Inter, Arial" font-size="13" fill="#eef2ff" opacity="0.75">Company</text>
<rect x="16" y="192" rx="12" ry="12" width="358" height="180" fill="#121a3a" stroke="#25316a"/>
<text x="28" y="218" font-family="Inter, Arial" font-size="14" fill="#eef2ff" opacity="0.9">Pending Reports</text>
<rect x="28" y="236" width="334" height="40" rx="10" ry="10" fill="none" stroke="#25316a"/>
<text x="36" y="262" font-family="Inter, Arial" font-size="13" fill="#eef2ff" opacity="0.75">Report list with counts</text>
<rect x="16" y="384" rx="12" ry="12" width="358" height="220" fill="#121a3a" stroke="#25316a"/>
<text x="28" y="410" font-family="Inter, Arial" font-size="14" fill="#eef2ff" opacity="0.9">Lines</text>
<rect x="28" y="428" width="334" height="40" rx="10" ry="10" fill="none" stroke="#25316a"/>
<text x="36" y="454" font-family="Inter, Arial" font-size="13" fill="#eef2ff" opacity="0.75">Date | Merchant | Category | Amount | Attendees | Status</text>
<rect x="250" y="476" width="112" height="40" rx="10" ry="10" fill="#335CFF"/>
<text x="306" y="502" text-anchor="middle" font-family="Inter, Arial" font-size="13" fill="#fff">Approve/Reject</text>
</svg>