<svg xmlns="http://www.w3.org/2000/svg" width="390" height="844" viewBox="0 0 390 844">
<rect x="0" y="0" width="390" height="844" fill="#0b1020"/>
<rect x="0" y="0" width="390" height="64" fill="#0f1733"/>
<text x="20" y="40" font-family="Inter, Arial" font-size="18" fill="#eef2ff">Admin – Policies & GL</text>
<rect x="16" y="80" rx="12" ry="12" width="358" height="180" fill="#121a3a" stroke="#25316a"/>
<text x="28" y="106" font-family="Inter, Arial" font-size="14" fill="#eef2ff" opacity="0.9">Per Diem & Mileage</text>
<rect x="28" y="124" width="334" height="40" rx="10" ry="10" fill="none" stroke="#25316a"/>
<text x="36" y="150" font-family="Inter, Arial" font-size="13" fill="#eef2ff" opacity="0.75">Hotel Cap</text>
<rect x="28" y="172" width="334" height="40" rx="10" ry="10" fill="none" stroke="#25316a"/>
<text x="36" y="198" font-family="Inter, Arial" font-size="13" fill="#eef2ff" opacity="0.75">M&IE Cap</text>
<rect x="28" y="220" width="334" height="40" rx="10" ry="10" fill="none" stroke="#25316a"/>
<text x="36" y="246" font-family="Inter, Arial" font-size="13" fill="#eef2ff" opacity="0.75">Mileage Rate</text>
<rect x="250" y="268" width="112" height="40" rx="10" ry="10" fill="#335CFF"/>
<text x="306" y="294" text-anchor="middle" font-family="Inter, Arial" font-size="13" fill="#fff">Save</text>
<rect x="16" y="272" rx="12" ry="12" width="358" height="180" fill="#121a3a" stroke="#25316a"/>
<text x="28" y="298" font-family="Inter, Arial" font-size="14" fill="#eef2ff" opacity="0.9">Category Limits</text>
<rect x="28" y="316" width="334" height="40" rx="10" ry="10" fill="none" stroke="#25316a"/>
<text x="36" y="342" font-family="Inter, Arial" font-size="13" fill="#eef2ff" opacity="0.75">Entertainment per-person policy</text>
<rect x="250" y="364" width="112" height="40" rx="10" ry="10" fill="#335CFF"/>
<text x="306" y="390" text-anchor="middle" font-family="Inter, Arial" font-size="13" fill="#fff">Save</text>
<rect x="16" y="464" rx="12" ry="12" width="358" height="160" fill="#121a3a" stroke="#25316a"/>
<text x="28" y="490" font-family="Inter, Arial" font-size="14" fill="#eef2ff" opacity="0.9">GL Mapping</text>
<rect x="28" y="508" width="334" height="40" rx="10" ry="10" fill="none" stroke="#25316a"/>
<text x="36" y="534" font-family="Inter, Arial" font-size="13" fill="#eef2ff" opacity="0.75">Category → GL dropdowns</text>
<rect x="250" y="556" width="112" height="40" rx="10" ry="10" fill="#335CFF"/>
<text x="306" y="582" text-anchor="middle" font-family="Inter, Arial" font-size="13" fill="#fff">Save</text>
</svg>