<svg xmlns="http://www.w3.org/2000/svg" width="1200" height="400" viewBox="0 0 1200 400">
<rect width="1200" height="400" fill="#0b1020"/>
<text x="24" y="40" fill="#eef2ff" font-size="20" font-family="Inter, Arial">Flow – User → Approver → Export</text>
<rect x="40" y="120" width="200" height="60" rx="14" fill="#121a3a" stroke="#25316a"/>
<text x="140.0" y="150.0" text-anchor="middle" fill="#eef2ff" font-size="14" font-family="Inter, Arial">Add Expenses</text>
<rect x="300" y="120" width="200" height="60" rx="14" fill="#121a3a" stroke="#25316a"/>
<text x="400.0" y="150.0" text-anchor="middle" fill="#eef2ff" font-size="14" font-family="Inter, Arial">Submit Draft</text>
<rect x="560" y="120" width="200" height="60" rx="14" fill="#121a3a" stroke="#25316a"/>
<text x="660.0" y="150.0" text-anchor="middle" fill="#eef2ff" font-size="14" font-family="Inter, Arial">Auto-approve in-policy</text>
<rect x="820" y="120" width="200" height="60" rx="14" fill="#121a3a" stroke="#25316a"/>
<text x="920.0" y="150.0" text-anchor="middle" fill="#eef2ff" font-size="14" font-family="Inter, Arial">Approver: exceptions</text>
<rect x="1040" y="120" width="120" height="60" rx="14" fill="#121a3a" stroke="#25316a"/>
<text x="1100.0" y="150.0" text-anchor="middle" fill="#eef2ff" font-size="14" font-family="Inter, Arial">Export IIF</text>
<line x1="240" y1="150" x2="300" y2="150" stroke="#25316a" stroke-width="2"/><polygon points="300,150 292,146 292,154" fill="#25316a"/>
<line x1="500" y1="150" x2="560" y2="150" stroke="#25316a" stroke-width="2"/><polygon points="560,150 552,146 552,154" fill="#25316a"/>
<line x1="760" y1="150" x2="820" y2="150" stroke="#25316a" stroke-width="2"/><polygon points="820,150 812,146 812,154" fill="#25316a"/>
<line x1="1020" y1="150" x2="1040" y2="150" stroke="#25316a" stroke-width="2"/><polygon points="1040,150 1032,146 1032,154" fill="#25316a"/>
</svg>